<svg xmlns="http://www.w3.org/2000/svg" viewBox="0 0 512 512" id="georgia"><path fill="#f0f0f0" d="M0 85.333h512V426.67H0z"></path><path fill="#d80027" d="M288 85.33h-64v138.666H0v64h224v138.666h64V287.996h224v-64H288z"></path><path fill="#d80027" d="M123.13 143.534v-22.261h-22.26v22.261H78.609v22.261h22.261v22.261h22.26v-22.261h22.261v-22.261zM411.13 143.534v-22.261h-22.26v22.261h-22.261v22.261h22.261v22.261h22.26v-22.261h22.261v-22.261zM123.13 346.197v-22.261h-22.26v22.261H78.609v22.261h22.261v22.261h22.26v-22.261h22.261v-22.261zM411.13 346.197v-22.261h-22.26v22.261h-22.261v22.261h22.261v22.261h22.26v-22.261h22.261v-22.261z"></path></svg>